<svg id="visual" viewBox="0 0 1960 1080" width="1960" height="1080" xmlns="http://www.w3.org/2000/svg" xmlns:xlink="http://www.w3.org/1999/xlink" version="1.1"><path d="M0 66L46.7 71.3C93.3 76.7 186.7 87.3 280 87.3C373.3 87.3 466.7 76.7 560 80.3C653.3 84 746.7 102 840 102C933.3 102 1026.7 84 1120 75C1213.3 66 1306.7 66 1400 87.5C1493.3 109 1586.7 152 1680 155.5C1773.3 159 1866.7 123 1913.3 105L1960 87L1960 0L1913.3 0C1866.7 0 1773.3 0 1680 0C1586.7 0 1493.3 0 1400 0C1306.7 0 1213.3 0 1120 0C1026.7 0 933.3 0 840 0C746.7 0 653.3 0 560 0C466.7 0 373.3 0 280 0C186.7 0 93.3 0 46.7 0L0 0Z" fill="#e1dddc"></path><path d="M0 120L46.7 129C93.3 138 186.7 156 280 154.2C373.3 152.3 466.7 130.7 560 136C653.3 141.3 746.7 173.7 840 175.5C933.3 177.3 1026.7 148.7 1120 132.5C1213.3 116.3 1306.7 112.7 1400 145C1493.3 177.3 1586.7 245.7 1680 263.7C1773.3 281.7 1866.7 249.3 1913.3 233.2L1960 217L1960 85L1913.3 103C1866.7 121 1773.3 157 1680 153.5C1586.7 150 1493.3 107 1400 85.5C1306.7 64 1213.3 64 1120 73C1026.7 82 933.3 100 840 100C746.7 100 653.3 82 560 78.3C466.7 74.7 373.3 85.3 280 85.3C186.7 85.3 93.3 74.7 46.7 69.3L0 64Z" fill="#e9e7e6"></path><path d="M0 476L46.7 470.7C93.3 465.3 186.7 454.7 280 454.7C373.3 454.7 466.7 465.3 560 474.3C653.3 483.3 746.7 490.7 840 469.2C933.3 447.7 1026.7 397.3 1120 406.3C1213.3 415.3 1306.7 483.7 1400 503.3C1493.3 523 1586.7 494 1680 485C1773.3 476 1866.7 487 1913.3 492.5L1960 498L1960 215L1913.3 231.2C1866.7 247.3 1773.3 279.7 1680 261.7C1586.7 243.7 1493.3 175.3 1400 143C1306.7 110.7 1213.3 114.3 1120 130.5C1026.7 146.7 933.3 175.3 840 173.5C746.7 171.7 653.3 139.3 560 134C466.7 128.7 373.3 150.3 280 152.2C186.7 154 93.3 136 46.7 127L0 118Z" fill="#f2f1f1"></path><path d="M0 703L46.7 701.2C93.3 699.3 186.7 695.7 280 692C373.3 688.3 466.7 684.7 560 684.7C653.3 684.7 746.7 688.3 840 692C933.3 695.7 1026.7 699.3 1120 712C1213.3 724.7 1306.7 746.3 1400 766.2C1493.3 786 1586.7 804 1680 795C1773.3 786 1866.7 750 1913.3 732L1960 714L1960 496L1913.3 490.5C1866.7 485 1773.3 474 1680 483C1586.7 492 1493.3 521 1400 501.3C1306.7 481.7 1213.3 413.3 1120 404.3C1026.7 395.3 933.3 445.7 840 467.2C746.7 488.7 653.3 481.3 560 472.3C466.7 463.3 373.3 452.7 280 452.7C186.7 452.7 93.3 463.3 46.7 468.7L0 474Z" fill="#f5f5f5"></path><path d="M0 811L46.7 823.7C93.3 836.3 186.7 861.7 280 868.8C373.3 876 466.7 865 560 875.7C653.3 886.3 746.7 918.7 840 916.8C933.3 915 1026.7 879 1120 866.5C1213.3 854 1306.7 865 1400 883C1493.3 901 1586.7 926 1680 929.5C1773.3 933 1866.7 915 1913.3 906L1960 897L1960 712L1913.3 730C1866.7 748 1773.3 784 1680 793C1586.7 802 1493.3 784 1400 764.2C1306.7 744.3 1213.3 722.7 1120 710C1026.7 697.3 933.3 693.7 840 690C746.7 686.3 653.3 682.7 560 682.7C466.7 682.7 373.3 686.3 280 690C186.7 693.7 93.3 697.3 46.7 699.2L0 701Z" fill="#f2f1f1"></path><path d="M0 930L46.7 935.3C93.3 940.7 186.7 951.3 280 956.7C373.3 962 466.7 962 560 971C653.3 980 746.7 998 840 992.7C933.3 987.3 1026.7 958.7 1120 949.7C1213.3 940.7 1306.7 951.3 1400 965.7C1493.3 980 1586.7 998 1680 1003.5C1773.3 1009 1866.7 1002 1913.3 998.5L1960 995L1960 895L1913.3 904C1866.7 913 1773.3 931 1680 927.5C1586.7 924 1493.3 899 1400 881C1306.7 863 1213.3 852 1120 864.5C1026.7 877 933.3 913 840 914.8C746.7 916.7 653.3 884.3 560 873.7C466.7 863 373.3 874 280 866.8C186.7 859.7 93.3 834.3 46.7 821.7L0 809Z" fill="#e9e7e6"></path><path d="M0 1081L46.7 1081C93.3 1081 186.7 1081 280 1081C373.3 1081 466.7 1081 560 1081C653.3 1081 746.7 1081 840 1081C933.3 1081 1026.7 1081 1120 1081C1213.3 1081 1306.7 1081 1400 1081C1493.3 1081 1586.7 1081 1680 1081C1773.3 1081 1866.7 1081 1913.3 1081L1960 1081L1960 993L1913.3 996.5C1866.7 1000 1773.3 1007 1680 1001.5C1586.7 996 1493.3 978 1400 963.7C1306.7 949.3 1213.3 938.7 1120 947.7C1026.7 956.7 933.3 985.3 840 990.7C746.7 996 653.3 978 560 969C466.7 960 373.3 960 280 954.7C186.7 949.3 93.3 938.7 46.7 933.3L0 928Z" fill="#e1dddc"></path></svg>