<svg id="visual" viewBox="0 0 1960 1080" width="1960" height="1080" xmlns="http://www.w3.org/2000/svg" xmlns:xlink="http://www.w3.org/1999/xlink" version="1.1"><path d="M0 87L36.3 87C72.7 87 145.3 87 218 83.5C290.7 80 363.3 73 435.8 67.7C508.3 62.3 580.7 58.7 653.2 64C725.7 69.3 798.3 83.7 871 89C943.7 94.3 1016.3 90.7 1089 85.3C1161.7 80 1234.3 73 1306.8 85.7C1379.3 98.3 1451.7 130.7 1524.2 137.8C1596.7 145 1669.3 127 1742 109C1814.7 91 1887.3 73 1923.7 64L1960 55L1960 0L1923.7 0C1887.3 0 1814.7 0 1742 0C1669.3 0 1596.7 0 1524.2 0C1451.7 0 1379.3 0 1306.8 0C1234.3 0 1161.7 0 1089 0C1016.3 0 943.7 0 871 0C798.3 0 725.7 0 653.2 0C580.7 0 508.3 0 435.8 0C363.3 0 290.7 0 218 0C145.3 0 72.7 0 36.3 0L0 0Z" fill="#f5f5f5"></path><path d="M0 271L36.3 272.8C72.7 274.7 145.3 278.3 218 301.7C290.7 325 363.3 368 435.8 369.8C508.3 371.7 580.7 332.3 653.2 355.8C725.7 379.3 798.3 465.7 871 487.2C943.7 508.7 1016.3 465.3 1089 434.7C1161.7 404 1234.3 386 1306.8 380.7C1379.3 375.3 1451.7 382.7 1524.2 406.2C1596.7 429.7 1669.3 469.3 1742 435.2C1814.7 401 1887.3 293 1923.7 239L1960 185L1960 53L1923.7 62C1887.3 71 1814.7 89 1742 107C1669.3 125 1596.7 143 1524.2 135.8C1451.7 128.7 1379.3 96.3 1306.8 83.7C1234.3 71 1161.7 78 1089 83.3C1016.3 88.7 943.7 92.3 871 87C798.3 81.7 725.7 67.3 653.2 62C580.7 56.7 508.3 60.3 435.8 65.7C363.3 71 290.7 78 218 81.5C145.3 85 72.7 85 36.3 85L0 85Z" fill="#f1f0f0"></path><path d="M0 563L36.3 573.7C72.7 584.3 145.3 605.7 218 600.2C290.7 594.7 363.3 562.3 435.8 567.8C508.3 573.3 580.7 616.7 653.2 643.7C725.7 670.7 798.3 681.3 871 679.5C943.7 677.7 1016.3 663.3 1089 656.2C1161.7 649 1234.3 649 1306.8 641.8C1379.3 634.7 1451.7 620.3 1524.2 633C1596.7 645.7 1669.3 685.3 1742 687.2C1814.7 689 1887.3 653 1923.7 635L1960 617L1960 183L1923.7 237C1887.3 291 1814.7 399 1742 433.2C1669.3 467.3 1596.7 427.7 1524.2 404.2C1451.7 380.7 1379.3 373.3 1306.8 378.7C1234.3 384 1161.7 402 1089 432.7C1016.3 463.3 943.7 506.7 871 485.2C798.3 463.7 725.7 377.3 653.2 353.8C580.7 330.3 508.3 369.7 435.8 367.8C363.3 366 290.7 323 218 299.7C145.3 276.3 72.7 272.7 36.3 270.8L0 269Z" fill="#edebeb"></path><path d="M0 789L36.3 785.5C72.7 782 145.3 775 218 771.5C290.7 768 363.3 768 435.8 793.2C508.3 818.3 580.7 868.7 653.2 877.7C725.7 886.7 798.3 854.3 871 841.7C943.7 829 1016.3 836 1089 841.3C1161.7 846.7 1234.3 850.3 1306.8 854C1379.3 857.7 1451.7 861.3 1524.2 857.8C1596.7 854.3 1669.3 843.7 1742 838.3C1814.7 833 1887.3 833 1923.7 833L1960 833L1960 615L1923.7 633C1887.3 651 1814.7 687 1742 685.2C1669.3 683.3 1596.7 643.7 1524.2 631C1451.7 618.3 1379.3 632.7 1306.8 639.8C1234.3 647 1161.7 647 1089 654.2C1016.3 661.3 943.7 675.7 871 677.5C798.3 679.3 725.7 668.7 653.2 641.7C580.7 614.7 508.3 571.3 435.8 565.8C363.3 560.3 290.7 592.7 218 598.2C145.3 603.7 72.7 582.3 36.3 571.7L0 561Z" fill="#e9e7e6"></path><path d="M0 908L36.3 908C72.7 908 145.3 908 218 900.8C290.7 893.7 363.3 879.3 435.8 899.2C508.3 919 580.7 973 653.2 987.3C725.7 1001.7 798.3 976.3 871 963.7C943.7 951 1016.3 951 1089 961.8C1161.7 972.7 1234.3 994.3 1306.8 1003.3C1379.3 1012.3 1451.7 1008.7 1524.2 988.8C1596.7 969 1669.3 933 1742 925.8C1814.7 918.7 1887.3 940.3 1923.7 951.2L1960 962L1960 831L1923.7 831C1887.3 831 1814.7 831 1742 836.3C1669.3 841.7 1596.7 852.3 1524.2 855.8C1451.7 859.3 1379.3 855.7 1306.8 852C1234.3 848.3 1161.7 844.7 1089 839.3C1016.3 834 943.7 827 871 839.7C798.3 852.3 725.7 884.7 653.2 875.7C580.7 866.7 508.3 816.3 435.8 791.2C363.3 766 290.7 766 218 769.5C145.3 773 72.7 780 36.3 783.5L0 787Z" fill="#e5e2e1"></path><path d="M0 1081L36.3 1081C72.7 1081 145.3 1081 218 1081C290.7 1081 363.3 1081 435.8 1081C508.3 1081 580.7 1081 653.2 1081C725.7 1081 798.3 1081 871 1081C943.7 1081 1016.3 1081 1089 1081C1161.7 1081 1234.3 1081 1306.8 1081C1379.3 1081 1451.7 1081 1524.2 1081C1596.7 1081 1669.3 1081 1742 1081C1814.7 1081 1887.3 1081 1923.7 1081L1960 1081L1960 960L1923.7 949.2C1887.3 938.3 1814.7 916.7 1742 923.8C1669.3 931 1596.7 967 1524.2 986.8C1451.7 1006.7 1379.3 1010.3 1306.8 1001.3C1234.3 992.3 1161.7 970.7 1089 959.8C1016.3 949 943.7 949 871 961.7C798.3 974.3 725.7 999.7 653.2 985.3C580.7 971 508.3 917 435.8 897.2C363.3 877.3 290.7 891.7 218 898.8C145.3 906 72.7 906 36.3 906L0 906Z" fill="#e1dddc"></path></svg>